<svg width="48" height="48" fill="none" xmlns="http://www.w3.org/2000/svg"><path fill-rule="evenodd" clip-rule="evenodd" d="M33.748 19.146a3.463 3.463 0 0 0 0-4.894 3.463 3.463 0 0 0-4.895 0 3.463 3.463 0 0 0 0 4.895 3.463 3.463 0 0 0 4.895 0Zm-4.187-.707c.96.96 2.52.96 3.48 0s.96-2.52 0-3.48-2.52-.96-3.48 0-.96 2.52 0 3.48Z" fill="#44F1A6"/><path fill-rule="evenodd" clip-rule="evenodd" d="M21.167 32.194a.823.823 0 0 0 .915-.815v-1.527h1.5a.82.82 0 0 0 .58-.24l2.103-2.077c3.212 1.042 6.693.27 9.096-2.135 3.519-3.518 3.519-9.243 0-12.761-3.518-3.519-9.243-3.519-12.761 0a9.02 9.02 0 0 0-2.198 9.158L10.24 31.959a.82.82 0 0 0-.24.58v4.64c0 .454.367.821.82.821h4.641a.82.82 0 0 0 .58-.24l1.16-1.161a.82.82 0 0 0 .235-.675l-.145-1.246 1.728-.163a.819.819 0 0 0 .739-.74l.163-1.726 1.246.145Zm.375-10.123-.188-.582a8.02 8.02 0 0 1 1.953-8.143c3.128-3.128 8.22-3.128 11.347 0 3.128 3.128 3.128 8.22 0 11.347-2.128 2.13-5.212 2.821-8.08 1.891l-.579-.187-2.487 2.455h-2.426v2.325l-2.061-.24-.245 2.597-2.595.244.251 2.175L15.386 37H11v-4.386L21.542 22.07Z" fill="#44F1A6"/><path fill-rule="evenodd" clip-rule="evenodd" d="M0 8a8 8 0 0 1 8-8h32a8 8 0 0 1 8 8v32a8 8 0 0 1-8 8H8a8 8 0 0 1-8-8V8Zm8-7h32a7 7 0 0 1 7 7v32a7 7 0 0 1-7 7H8a7 7 0 0 1-7-7V8a7 7 0 0 1 7-7Z" fill="#44F1A6"/></svg>