<svg width="48" height="48" fill="none" xmlns="http://www.w3.org/2000/svg"><path fill-rule="evenodd" clip-rule="evenodd" d="m9.323 8.358-1.84 5.398 1.005 4.971-.927.85 1.014.64-.67.575.97.916-.555.454 1.517 1.76-1.98 6.634 2.37 7.406L17.407 36l4.292 3.54h5.272l3.81-3.488 6.938 1.678 2.37-7.17-1.977-6.68 1.58-1.702-.58-.484.953-.742-.746-.693 1.023-.739-1.028-.808 1.209-4.784-1.903-5.341-10.565 3.56h-8.158L9.323 8.357Zm.077 12.47.855-.733L9.2 19.43l.379-.348-1.063-5.26 1.366-4.008L20.897 18.1l-4.206 3.346-6.128 1.788-.815-.946.641-.525-.989-.934Zm10.016-7.791-6.847-2.454 8.129 6.115-1.282-3.662Zm-2.097 9.187 3.954-3.146.345 5.732-5.566-.176 1.267-2.41Zm-.834 3.424 5.07.16-.29 1.619-.631-1.233-2.46 1.144-1.69-1.69Zm2.983 2.19 1.047.316-.332-.647-.715.332Zm-.9 2.854v-2.08l2.512.758.983 3.928-.139.079-3.356-2.685Zm6.904 2.352H23.11l-.9-15.055-1.696-4.843h6.944l-1.506 4.858-.275 7.304v.005l-.205 7.731Zm1.91-16.278 1.156-3.727 6.97-2.349-8.126 6.076Zm-.125 1.343 10.812-8.085 1.409 3.953-1.294 5.12.495.39-.935.676.777.722-1.005.782.725.604-.846.91-6.243-1.842-3.895-3.23Zm4.851 4.555 5.04 1.487 1.755 5.925-5.013.193h-.005l-2.914.085 2.696-5.392-1.559-2.298Zm2.072 8.595 4.684-.18-1.806 5.463-5.552-1.343c.23-.323.523-.748.84-1.212.614-.9 1.321-1.957 1.834-2.729Zm-2.66 2.164c-.184.27-.36.526-.518.754l-.298-2.815 2.25-.065c-.448.67-.968 1.444-1.434 2.126Zm-3.818.384 2.055-1.89.298 2.819-2.353-.929Zm-.343.94 2.353.928-2.205 2.018.1-.596-.248-2.35Zm-.847 2.835-.16.959H22.29l-.187-.96h4.409Zm-7.977-1.947 2.586 2.133-.13-.669.293-2.391-2.749.927Zm-.078-3.751 2.394 1.914-2.736.924.342-2.838Zm-.95-.474-.323 2.68-1.938-2.769 2.26.09Zm-8.432-.331 4.916.193 2.716 3.882-5.819 1.591-1.813-5.666Zm1.72-6.873-1.75 5.87 8.208.323-2.575-5.299 1.257-2.392-5.14 1.498Zm6.193 3.36.58 1.193v-.613l-.58-.58Zm5.074 9.016.281-2.293.43-.245h3.061l.472.252.24 2.286h-4.484Zm4.453-3.308.183.098 2.964-2.725.113-2.03-2.562.749-.698 3.908Zm5.359-7.716-1.686 1.784-2.684-1.142-.5 1.083-.243-1.484 5.113-.241Zm.3-1.015-5.477.258.213-5.68 3.628 3.008 1.636 2.414Zm-1.372 3.606.325-.344-.344.688.019-.344Zm-2.796-.649-.316.685 1.14-.334-.824-.35Z" fill="#44F1A6"/><path fill-rule="evenodd" clip-rule="evenodd" d="M0 8a8 8 0 0 1 8-8h32a8 8 0 0 1 8 8v32a8 8 0 0 1-8 8H8a8 8 0 0 1-8-8V8Zm8-7h32a7 7 0 0 1 7 7v32a7 7 0 0 1-7 7H8a7 7 0 0 1-7-7V8a7 7 0 0 1 7-7Z" fill="#44F1A6"/></svg>