<svg width="48" height="48" fill="none" xmlns="http://www.w3.org/2000/svg"><path d="M17.116 18.878c-.134.446-.186 1.461.446 2.454.15.236.37.532.61.855.05.07.103.14.155.21.307.416.647.887.971 1.4.655 1.035 1.21 2.19 1.298 3.331l.997-.077c-.107-1.386-.767-2.71-1.45-3.788a24.445 24.445 0 0 0-1.011-1.46l-.166-.224c-.24-.323-.431-.581-.56-.784-.458-.718-.393-1.427-.332-1.63l-.958-.287Z" fill="#44F1A6"/><path fill-rule="evenodd" clip-rule="evenodd" d="M11.638 21.534c.514-.182 1.118-.022 1.799.555.676.573 1.341 1.494 1.901 2.602a14.15 14.15 0 0 1 1.233 3.576c.24 1.223.272 2.372.052 3.273-.48 1.97-1.181 2.578-1.771 2.647-.32.037-.715-.06-1.189-.346a4.448 4.448 0 0 1-.368-.25c.325.055.646.015.927-.125.03-.015.07-.031.116-.05.248-.101.698-.285 1.025-.841.36-.613.588-1.657.637-3.562.053-2.066-.962-3.713-1.83-4.599a4.145 4.145 0 0 0-.636-.541c-.18-.12-.41-.246-.643-.264a.635.635 0 0 0-.499.17.639.639 0 0 0-.182.507c.016.241.146.5.296.738.517.818.847 2.28.939 3.582.045.644.03 1.208-.035 1.595l-.002.01a10.37 10.37 0 0 1-.046-.088l-.034-.067c-.047-.09-.098-.19-.15-.285a2.642 2.642 0 0 0-.238-.364 1.169 1.169 0 0 0-.386-.325.845.845 0 0 0-.619-.055c-.204.059-.378.185-.526.333a.819.819 0 0 0-.2.38 1.876 1.876 0 0 0-.05.444c-.004.337.055.797.218 1.409.116.435.302.804.53 1.104l-.519.459c.58.654 1.17 1.185 1.758 1.54.586.355 1.206.556 1.822.484 1.28-.15 2.135-1.388 2.627-3.404.266-1.091.213-2.397-.043-3.701a15.147 15.147 0 0 0-1.321-3.835c-.595-1.177-1.333-2.224-2.148-2.914-.81-.687-1.786-1.087-2.779-.734-1.503.533-2.027 2.106-2.158 3.579-.135 1.509.114 3.152.383 4.208l.969-.246c-.25-.986-.478-2.51-.356-3.874.125-1.4.589-2.403 1.496-2.725Zm1.659 9.053.001-.002a.008.008 0 0 1-.001.002Zm1.145-2.051c-.066-.94-.252-2.026-.576-2.946.608.798 1.17 1.989 1.134 3.397-.048 1.886-.279 2.705-.5 3.081-.145.247-.26.297-.473.388-.072.031-.154.066-.252.116-.203.1-1.094.03-1.432-1.237-.148-.555-.187-.921-.185-1.143 0-.065.005-.114.01-.15.04.052.084.123.136.216.043.078.084.158.13.246l.04.078c.058.113.125.24.197.355.071.112.164.242.284.347a.825.825 0 0 0 .545.216c.373 0 .587-.27.686-.454.106-.195.17-.436.21-.679.083-.495.095-1.145.046-1.831Zm-2.262 1.442a.039.039 0 0 0 .003-.006l-.001.002-.002.004Z" fill="#44F1A6"/><path fill-rule="evenodd" clip-rule="evenodd" d="M48 24c0 13.255-10.745 24-24 24S0 37.255 0 24 10.745 0 24 0s24 10.745 24 24ZM24.159 47H24c-4.656 0-8.99-1.384-12.61-3.762.985-1.085 1.811-1.678 2.705-2.088.92.714 2.13 1.443 3.55 1.873 2.615.793 5.567 1.12 6.725 1.187l.057-.998c-1.109-.064-3.976-.384-6.493-1.146-1.39-.421-2.574-1.168-3.446-1.882a9.97 9.97 0 0 1-1.029-.962c.14-.098.275-.185.404-.262.259.183.697.49 1.405.982.64.445 1.704.81 2.883 1.114 2.384.614 5.527 1.041 7.56 1.25-.052.225-.102.463-.153.705l-.018.086c-.094.45-.193.923-.316 1.4-.241.938-.563 1.83-1.065 2.502Zm1.209-.04a22.904 22.904 0 0 0 13.756-5.632 15.353 15.353 0 0 0-2.26-.834 21.075 21.075 0 0 1-3.54 2.327c-1.602.836-3.496 1.543-5.317 1.584l-.023-1c1.6-.036 3.335-.666 4.878-1.471a20.648 20.648 0 0 0 2.774-1.747 16.687 16.687 0 0 0-1.694-.275c-1.291.762-2.717 1.304-4.28 1.662-1.528.35-2.42.56-2.908.678-.072.276-.141.6-.217.964l-.02.09c-.092.446-.195.94-.324 1.44-.19.735-.442 1.515-.825 2.214Zm14.55-6.358c.295-.283.584-.575.864-.874-1.826-.376-3.98-.683-5.345-.847-.085.068-.17.134-.255.199.527.093 1.1.218 1.692.378.996.27 2.057.644 3.043 1.144Zm1.63-1.733c-1.632-.363-3.619-.671-5.117-.87.12-.117.238-.237.354-.36 1.044-1.102 1.956-2.429 2.75-4.007.238-.473.466-.97.683-1.49 2.059-4.924 2.118-12.717-2.002-18.466a16.083 16.083 0 0 0-1.602-1.906c-3.33-3.389-7.419-5.039-11.672-5.244a4.215 4.215 0 0 0-.654-.02c-2.814-.04-5.68.542-8.435 1.652-3.653 1.471-5.995 4.36-7.417 7.653C7.016 19.098 6.5 22.815 6.5 26.02c0 2.668 1.21 5.35 2.67 7.587a26.823 26.823 0 0 0 3.896 4.673 9.39 9.39 0 0 0-.641.464 8.507 8.507 0 0 1-.736.488l-.283.173c-.245.15-.513.313-.779.483-.624.398-1.313.876-1.796 1.4C4.03 37.074 1 30.89 1 24 1 11.297 11.297 1 24 1s23 10.297 23 23a22.91 22.91 0 0 1-5.452 14.869ZM9.597 41.933c.314.252.635.497.962.733.955-1.07 1.802-1.742 2.707-2.221a9.857 9.857 0 0 1-.62-.633c-.136.089-.283.18-.433.273l-.294.18h-.001c-.242.148-.496.303-.753.467-.619.395-1.19.803-1.568 1.201ZM38.206 34c-.633 1.12-1.331 2.08-2.098 2.9-.238.133-.742.37-1.44.598-.288-.31-.688-.697-1.15-1.067-.593-.474-1.325-.95-2.077-1.17-.747-.22-1.326-.525-1.813-1.344-.514-.864-.943-2.33-1.233-4.939-.25-2.25-1.308-3.596-2.571-4.33-1.1-.638-2.316-.792-3.213-.733a19.147 19.147 0 0 0-.737-1.006c-.899-1.17-1.632-2.124-1.354-4.21.06-.452.407-.922 1.135-1.39.72-.463 1.732-.87 2.945-1.218 2.351-.674 5.346-1.102 8.143-1.35 1.1 1.28 2.63 3.413 3.819 5.869 1.254 2.59 2.097 5.472 1.727 8.061-.196 1.376-.303 2.411-.345 3.181-.042.76-.024 1.294.05 1.647.036.168.095.353.212.501Zm-5.313 3.212c.247.197.474.4.671.59a12.17 12.17 0 0 1-.32.067c-.894.177-3.26.186-5.593-.078-1.158-.131-2.278-.326-3.176-.59a6.309 6.309 0 0 1-1.13-.435c-.304-.16-.488-.313-.582-.444-.223-.308-.302-.686-.26-1.202.042-.53.206-1.148.42-1.904l.068-.235c.414-1.447.934-3.266.838-5.428-.048-1.078-.296-1.927-.641-2.645.656.03 1.43.197 2.133.605.978.568 1.864 1.627 2.08 3.576.294 2.64.74 4.284 1.367 5.34.655 1.1 1.486 1.525 2.391 1.791.57.168 1.183.551 1.734.992Zm4.569-17.038a29.977 29.977 0 0 0-3.5-5.53 75.896 75.896 0 0 1 3.591-.171c3.733 5.4 3.666 12.684 1.742 17.284-.121.29-.246.572-.373.846 0-.193.005-.423.02-.696.04-.73.144-1.735.337-3.094.411-2.879-.528-5.977-1.817-8.64ZM35.9 12.47c.323.33.628.67.915 1.021-.323.01-.66.024-1.006.04a28.957 28.957 0 0 0-1.536-1.755c-.785-.83-1.734-1.742-2.73-2.519a16.684 16.684 0 0 1 4.357 3.213Zm-2.197.16c.32.344.61.672.865.97-.538.034-1.094.074-1.659.122-2.892.246-6.072.686-8.586 1.407-1.254.36-2.372.799-3.21 1.337-.828.533-1.467 1.22-1.585 2.1-.337 2.532.7 3.873 1.654 5.105.268.346.53.683.752 1.036.47.745.839 1.622.895 2.89.089 1.995-.39 3.674-.807 5.13l-.061.215c-.21.739-.405 1.452-.457 2.097-.052.659.038 1.302.447 1.868.222.307.558.549.928.743.376.197.825.365 1.313.509.975.287 2.157.49 3.345.625 2.357.266 4.85.273 5.9.066.167-.033.329-.069.486-.106-.117.077-.236.153-.356.226-1.226.745-2.596 1.277-4.13 1.628-1.865.428-2.793.647-3.195.749l-.015.003c-1.958-.184-5.285-.617-7.76-1.246-.561-.34-1.96-1.533-3.05-3.713l-.895.447c.498.995 1.06 1.81 1.6 2.453a2.854 2.854 0 0 1-.284-.171c-.894-.622-1.354-.945-1.565-1.095l-.005-.004-.039-.034c-1.12-.977-2.813-2.765-4.223-4.926C8.59 30.892 7.5 28.407 7.5 26.02c0-3.112.504-6.685 1.854-9.813.868-2.008 2.078-3.822 3.722-5.219-1.446 2-2.693 4.8-2.394 8.08l.996-.091c-.44-4.84 2.85-8.604 4.607-9.915 2.634-1.053 5.355-1.596 8.01-1.556.192.002.385.008.577.017.782.08 2.214.386 4.077 1.26 1.264.592 2.649 1.74 3.841 2.91-1.387.109-3.87.347-6.398.773-1.851.312-3.752.728-5.28 1.275-.763.274-1.452.587-2 .948-.54.357-.993.793-1.205 1.33l.93.368c.105-.264.363-.558.826-.863.456-.3 1.063-.582 1.786-.841 1.446-.519 3.28-.923 5.109-1.23a72.606 72.606 0 0 1 4.992-.648 72.17 72.17 0 0 1 2.154-.174Z" fill="#44F1A6"/></svg>