<svg width="48" height="48" fill="none" xmlns="http://www.w3.org/2000/svg"><path d="M11 8h3v5h2v1h-5v-1h2V9h-2V8ZM39 24H9v1h30v-1ZM28 8h-3v1h2v4h-2v1h5v-1h-2V8Z" fill="#44F1A6"/><path fill-rule="evenodd" clip-rule="evenodd" d="M37 14h-5V8h5v6Zm-1-5v4h-3V9h3ZM16 22h-5v-6h5v6Zm-1-5v4h-3v-4h3Z" fill="#44F1A6"/><path d="M21 16h-3v1h2v4h-2v1h5v-1h-2v-5ZM28 16h-3v1h2v4h-2v1h5v-1h-2v-5ZM35 16h-3v1h2v4h-2v1h5v-1h-2v-5Z" fill="#44F1A6"/><path fill-rule="evenodd" clip-rule="evenodd" d="M23 14h-5V8h5v6Zm-1-5v4h-3V9h3Z" fill="#44F1A6"/><path d="M10.038 27h.02a8.468 8.468 0 0 0 6.8 7.31A13.08 13.08 0 0 1 12.25 27h7.458a5.386 5.386 0 0 0 5.28 4.385H25A5.386 5.386 0 0 0 30.292 27h7.753c.021.305.032.613.032.923C38.077 35.145 32.223 41 25 41a8.464 8.464 0 0 0 8.31-6.857 13.053 13.053 0 0 1-10.233 4.934c-6.885 0-12.528-5.322-13.039-12.077Z" fill="#44F1A6"/><path fill-rule="evenodd" clip-rule="evenodd" d="M8 0a8 8 0 0 0-8 8v32a8 8 0 0 0 8 8h32a8 8 0 0 0 8-8V8a8 8 0 0 0-8-8H8Zm32 1H8a7 7 0 0 0-7 7v32a7 7 0 0 0 7 7h32a7 7 0 0 0 7-7V8a7 7 0 0 0-7-7Z" fill="#44F1A6"/></svg>