<svg width="48" height="48" fill="none" xmlns="http://www.w3.org/2000/svg"><path d="M13 16a2 2 0 1 1-4 0 2 2 0 0 1 4 0ZM20 16a1 1 0 0 1 1-1h13a1 1 0 1 1 0 2H21a1 1 0 0 1-1-1ZM39 16a1 1 0 1 1-2 0 1 1 0 0 1 2 0Z" fill="#44F1A6"/><path fill-rule="evenodd" clip-rule="evenodd" d="M7 10a2 2 0 0 0-2 2v8a2 2 0 0 0 2 2h34a2 2 0 0 0 2-2v-8a2 2 0 0 0-2-2H7Zm9 2a1 1 0 0 0-1-1H7a1 1 0 0 0-1 1v8a1 1 0 0 0 1 1h8a1 1 0 0 0 1-1v-8Zm.732 9A1.99 1.99 0 0 0 17 20v-8a1.99 1.99 0 0 0-.268-1H41a1 1 0 0 1 1 1v8a1 1 0 0 1-1 1H16.732Z" fill="#44F1A6"/><path d="M11 34a2 2 0 1 0 0-4 2 2 0 0 0 0 4ZM20 32a1 1 0 0 1 1-1h13a1 1 0 1 1 0 2H21a1 1 0 0 1-1-1ZM39 32a1 1 0 1 1-2 0 1 1 0 0 1 2 0Z" fill="#44F1A6"/><path fill-rule="evenodd" clip-rule="evenodd" d="M7 26a2 2 0 0 0-2 2v8a2 2 0 0 0 2 2h34a2 2 0 0 0 2-2v-8a2 2 0 0 0-2-2H7Zm9 2a1 1 0 0 0-1-1H7a1 1 0 0 0-1 1v8a1 1 0 0 0 1 1h8a1 1 0 0 0 1-1v-8Zm.732 9A1.99 1.99 0 0 0 17 36v-8a1.99 1.99 0 0 0-.268-1H41a1 1 0 0 1 1 1v8a1 1 0 0 1-1 1H16.732Z" fill="#44F1A6"/><path fill-rule="evenodd" clip-rule="evenodd" d="M0 8a8 8 0 0 1 8-8h32a8 8 0 0 1 8 8v32a8 8 0 0 1-8 8H8a8 8 0 0 1-8-8V8Zm8-7h32a7 7 0 0 1 7 7v32a7 7 0 0 1-7 7H8a7 7 0 0 1-7-7V8a7 7 0 0 1 7-7Z" fill="#44F1A6"/></svg>