<svg width="48" height="48" fill="none" xmlns="http://www.w3.org/2000/svg"><path fill-rule="evenodd" clip-rule="evenodd" d="M12.367 33.069a2.61 2.61 0 0 1 1.261-.322c.701 0 1.36.273 1.856.769.496.495.77 1.155.77 1.856 0 .7-.274 1.36-.77 1.856a2.608 2.608 0 0 1-1.856.769c-.701 0-1.36-.273-1.856-.77a2.607 2.607 0 0 1-.769-1.855c0-.526.154-1.029.44-1.456A16.03 16.03 0 0 1 8 24c0-4.274 1.664-8.292 4.686-11.314A15.895 15.895 0 0 1 24 8c1.072 0 2.143.107 3.185.317a.625.625 0 0 1-.247 1.225A14.861 14.861 0 0 0 24 9.25C15.867 9.25 9.25 15.867 9.25 24c0 3.283 1.105 6.488 3.117 9.069Zm1.261 3.678c.367 0 .713-.143.972-.403.26-.26.403-.605.403-.972 0-.368-.143-.713-.403-.973a1.366 1.366 0 0 0-.972-.402c-.367 0-.713.143-.972.402-.26.26-.403.605-.403.973 0 .367.143.712.403.972s.605.403.972.403ZM36.228 10.772a2.63 2.63 0 0 1 .328 3.312A16.03 16.03 0 0 1 40 24c0 4.274-1.664 8.292-4.686 11.314A15.895 15.895 0 0 1 24 40a16.13 16.13 0 0 1-3.155-.311.625.625 0 0 1 .246-1.226c.951.19 1.93.287 2.909.287 8.133 0 14.75-6.617 14.75-14.75 0-3.283-1.105-6.488-3.117-9.069a2.61 2.61 0 0 1-1.261.322c-.701 0-1.36-.273-1.856-.769a2.608 2.608 0 0 1-.77-1.856c0-.701.274-1.36.77-1.856a2.609 2.609 0 0 1 1.856-.769c.701 0 1.36.273 1.856.769Zm-3.231 1.856c0 .368.143.713.403.973s.604.402.972.402c.367 0 .712-.143.972-.402a1.377 1.377 0 0 0-.972-2.348c-.367 0-.713.143-.972.403-.26.26-.403.605-.403.972Z" fill="#44F1A6"/><path fill-rule="evenodd" clip-rule="evenodd" d="M24 18.836A5.17 5.17 0 0 1 29.164 24 5.17 5.17 0 0 1 24 29.164 5.17 5.17 0 0 1 18.836 24 5.17 5.17 0 0 1 24 18.836Zm0 1.25A3.919 3.919 0 0 0 20.086 24 3.919 3.919 0 0 0 24 27.914 3.919 3.919 0 0 0 27.914 24 3.919 3.919 0 0 0 24 20.086Z" fill="#44F1A6"/><path fill-rule="evenodd" clip-rule="evenodd" d="M21.42 34.75c0 .345.28.625.626.625h3.908c.345 0 .625-.28.625-.625v-1.212a9.789 9.789 0 0 0 2.346-.972l.855.856a.625.625 0 0 0 .884 0l2.762-2.765a.625.625 0 0 0 0-.884l-.854-.854a9.781 9.781 0 0 0 .972-2.346h1.207c.345 0 .625-.28.625-.625V22.04a.625.625 0 0 0-.625-.625h-1.207a9.79 9.79 0 0 0-.972-2.345l.85-.85a.626.626 0 0 0 0-.884l-2.765-2.762a.625.625 0 0 0-.884 0l-.848.849a9.789 9.789 0 0 0-2.346-.973v-1.2a.625.625 0 0 0-.625-.625h-3.908a.625.625 0 0 0-.625.625v1.2a9.778 9.778 0 0 0-2.346.973l-.848-.85a.625.625 0 0 0-.884 0l-2.764 2.763a.624.624 0 0 0 0 .884l.85.85a9.782 9.782 0 0 0-.973 2.345h-1.205a.625.625 0 0 0-.625.625l-.002 3.908a.624.624 0 0 0 .625.625h1.207c.221.822.547 1.608.972 2.346l-.854.854a.625.625 0 0 0 0 .884l2.762 2.764a.625.625 0 0 0 .884 0l.855-.855c.739.425 1.524.751 2.346.972v1.212Zm-2.1-3.498a.625.625 0 0 0-.78.083l-.762.76-1.879-1.88.76-.76a.625.625 0 0 0 .084-.78 8.556 8.556 0 0 1-1.184-2.858.625.625 0 0 0-.611-.494h-1.074l.002-2.658h1.072a.625.625 0 0 0 .61-.493 8.556 8.556 0 0 1 1.185-2.857.625.625 0 0 0-.083-.781l-.756-.756 1.88-1.879.755.755a.625.625 0 0 0 .781.083 8.551 8.551 0 0 1 2.857-1.183.625.625 0 0 0 .494-.612v-1.067h2.658v1.067c0 .295.205.55.494.611a8.557 8.557 0 0 1 2.856 1.184c.248.16.573.126.782-.083l.754-.755 1.88 1.88-.755.754a.625.625 0 0 0-.083.782 8.562 8.562 0 0 1 1.184 2.857.625.625 0 0 0 .611.493h1.074v2.658h-1.074a.625.625 0 0 0-.611.494 8.553 8.553 0 0 1-1.184 2.857.625.625 0 0 0 .083.781l.76.76-1.878 1.88-.761-.76a.625.625 0 0 0-.782-.083 8.557 8.557 0 0 1-2.856 1.183.625.625 0 0 0-.494.612v1.078H22.67v-1.078a.625.625 0 0 0-.494-.611 8.554 8.554 0 0 1-2.857-1.184Z" fill="#44F1A6"/><path fill-rule="evenodd" clip-rule="evenodd" d="M0 8a8 8 0 0 1 8-8h32a8 8 0 0 1 8 8v32a8 8 0 0 1-8 8H8a8 8 0 0 1-8-8V8Zm8-7h32a7 7 0 0 1 7 7v32a7 7 0 0 1-7 7H8a7 7 0 0 1-7-7V8a7 7 0 0 1 7-7Z" fill="#44F1A6"/></svg>