<svg width="18" height="16" fill="none" xmlns="http://www.w3.org/2000/svg"><path fill-rule="evenodd" clip-rule="evenodd" d="M0 2.5 1.074 0l5.494 1.972h4.822L16.925 0 18 2.5l-1.368 5.55 1.2 3.64-1.2 3.802-3.874-1.098-2.4 1.606H7.684l-2.442-1.606-3.874 1.098-1.22-3.802 1.241-3.802L0 2.501ZM1.453.65.61 2.766l1.264 4.737 3.473-.874 2.337-1.911L1.453.65Zm15.01 0-6.126 4.067 2.231 1.91 3.558.875 1.242-4.737-.905-2.114ZM5.705 10.105l1.263-.732.716 1.342-1.979-.61Zm5.306-.732-.674 1.342c.547-.203 1.68-.61 1.831-.61.152 0-.708-.488-1.157-.732Zm-3.495 5.002.168-1.017.274-.305h1.958l.42.305.148 1.017H7.516Z" fill="#595959"/></svg>