<svg xmlns="http://www.w3.org/2000/svg" viewBox="0 0 121.2 104.1"><defs><clipPath id="a" transform="translate(-3.7 -10)"><path fill="none" d="M1.7 0h125v125H1.7z"/></clipPath></defs><g clip-path="url(#a)"><path d="M91.4 31.8a7.9 7.9 0 0 0-7.6 0L66.4 41.9l-11.9 6.6-17.4 10.1a7.9 7.9 0 0 1-7.6 0l-13.9-7.9a7.6 7.6 0 0 1-3.8-6.4V28.7a7.2 7.2 0 0 1 3.8-6.4l13.7-7.7a7.9 7.9 0 0 1 7.6 0l13.6 7.7a7.7 7.7 0 0 1 3.8 6.4v10.1L66.2 32V21.9a7.4 7.4 0 0 0-3.8-6.4L37.1 1a7.9 7.9 0 0 0-7.6 0L3.8 15.5A7 7 0 0 0 0 21.9v29.2a6.9 6.9 0 0 0 3.8 6.4L29.5 72a7.4 7.4 0 0 0 7.6 0l17.4-9.9 11.9-6.8 17.4-9.9a7.9 7.9 0 0 1 7.6 0l13.7 7.7a7.7 7.7 0 0 1 3.8 6.4v15.6a7.2 7.2 0 0 1-3.8 6.4l-13.7 7.9a7.9 7.9 0 0 1-7.6 0l-13.6-7.7a7.6 7.6 0 0 1-3.8-6.4V65.2L54.5 72v10.2a7.2 7.2 0 0 0 3.8 6.3l25.8 14.6a7.9 7.9 0 0 0 7.6 0l25.7-14.6a7.5 7.5 0 0 0 3.8-6.3V52.9a7.4 7.4 0 0 0-3.8-6.4Z" fill="#8247e5"/></g></svg>