<svg xmlns="http://www.w3.org/2000/svg" viewBox="0 0 30 30"><path fill-rule="evenodd" clip-rule="evenodd" d="M2.5 21.2c1 .8 2.4 1.1 4 1.1 2 0 3.5-.5 4.7-1.4 1.2-.9 2-2.3 2.5-4.2.3-1.1.5-2.3.7-3.5.1-.4.1-.8.1-1.1 0-1-.2-1.8-.7-2.5-.5-.7-1.1-1.2-2-1.6-.8-.2-1.7-.4-2.8-.4-3.9 0-6.3 1.9-7.2 5.6-.3 1.4-.6 2.6-.8 3.5v1.2c0 1.4.5 2.6 1.5 3.3zm6.2-2.4c-.5.5-1.2.7-1.9.7-1.3 0-2-.6-2-1.9 0-.3 0-.6.1-.9.2-1.3.5-2.4.7-3.4.2-.9.6-1.6 1.1-2.1.5-.5 1.2-.7 2-.7 1.3 0 1.9.6 1.9 1.9 0 .3 0 .6-.1.9-.2 1-.4 2.1-.7 3.4-.1.9-.5 1.6-1.1 2.1zm6.4 3.2c.1.1.2.1.3.1h2.8c.1 0 .3 0 .4-.1.1-.1.2-.2.2-.4l.9-4.5h2.8c1.8 0 3.2-.4 4.2-1.1 1-.8 1.7-1.9 2.1-3.5.1-.4.1-.7.1-1.1 0-1.2-.5-2.1-1.4-2.7-.9-.6-2.1-.9-3.7-.9h-5.5c-.1 0-.3 0-.4.1-.1.1-.2.2-.2.4l-2.8 13.3c.2.2.2.3.2.4zm9.2-8.1c-.4.3-.9.5-1.5.5h-2.4l.8-3.7h2.5c.6 0 1 .1 1.2.3.2.2.3.5.3.9 0 .2 0 .4-.1.6-.1.6-.4 1.1-.8 1.4z"/></svg>