<svg width="48" height="48" fill="none" xmlns="http://www.w3.org/2000/svg"><path fill-rule="evenodd" clip-rule="evenodd" d="M15.038 15.001a.5.5 0 0 1 .433.33l2.5 7a.5.5 0 0 1-.15.553l-3 2.5a.5.5 0 0 1-.675-.03l-3-3a.5.5 0 0 1-.086-.591l3.5-6.5a.5.5 0 0 1 .478-.262Zm-2.921 6.909 2.414 2.414 2.38-1.985-2.004-5.612-2.79 5.183Z" fill="#44F1A6"/><path fill-rule="evenodd" clip-rule="evenodd" d="M10.713 23.59a.5.5 0 0 1 .64.056l3.194 3.194L18.2 24.1a.5.5 0 0 1 .734.648l-4 7a.5.5 0 0 1-.887-.037l-3.5-7.5a.5.5 0 0 1 .166-.62Zm1.94 2.77 1.892 4.054 2.322-4.064L14.8 27.9a.5.5 0 0 1-.654-.046l-1.493-1.494Z" fill="#44F1A6"/><path fill-rule="evenodd" clip-rule="evenodd" d="M16.188 9.604A6.847 6.847 0 0 0 15 9.5c-2.696 0-5.083 1.579-6.775 4.023C6.53 15.969 5.5 19.321 5.5 23c0 3.679 1.031 7.03 2.725 9.477C9.917 34.921 12.305 36.5 15 36.5c.403 0 .8-.035 1.188-.104a6.38 6.38 0 0 0 1.145.104c.873 0 1.71-.177 2.5-.504.792.327 1.63.504 2.5.504a6.4 6.4 0 0 0 1.1-.095l-.004.03c.298.043.6.065.904.065.873 0 1.71-.177 2.5-.504a6.51 6.51 0 0 0 2.5.504 6.4 6.4 0 0 0 1.1-.095l-.004.03c.298.043.6.065.904.065 2.613 0 4.917-1.588 6.545-4.03 1.63-2.446 2.622-5.795 2.622-9.47 0-3.675-.992-7.024-2.622-9.47-1.628-2.442-3.932-4.03-6.545-4.03-.27 0-.536.017-.8.05l.008.065a6.395 6.395 0 0 0-1.208-.115 6.51 6.51 0 0 0-2.5.504 6.503 6.503 0 0 0-2.5-.504c-.305 0-.606.022-.904.064l.005.031a6.394 6.394 0 0 0-1.1-.095 6.51 6.51 0 0 0-2.5.504 6.503 6.503 0 0 0-2.5-.504c-.389 0-.771.035-1.146.104Zm-7.14 4.488C7.482 16.352 6.5 19.5 6.5 23c0 3.501.983 6.649 2.547 8.908C10.612 34.168 12.725 35.5 15 35.5c.373 0 .742-.036 1.105-.106l.008-.034.077.017c1.815-.377 3.474-1.608 4.763-3.47C22.517 29.65 23.5 26.502 23.5 23c0-3.501-.983-6.649-2.547-8.908-1.288-1.86-2.948-3.092-4.763-3.47a7.093 7.093 0 0 0-.077.018l-.008-.034A5.832 5.832 0 0 0 15 10.5c-2.275 0-4.388 1.331-5.953 3.592ZM29.332 35.5c-.433 0-.859-.052-1.275-.153 1.072-.7 2.026-1.687 2.82-2.877 1.63-2.446 2.622-5.795 2.622-9.47 0-3.675-.992-7.024-2.622-9.47-.794-1.19-1.748-2.177-2.82-2.877.416-.1.842-.153 1.275-.153 2.174 0 4.204 1.322 5.713 3.585 1.506 2.26 2.454 5.41 2.454 8.915 0 3.505-.948 6.655-2.454 8.915-1.51 2.263-3.539 3.585-5.713 3.585Zm7.713-3.585c-1.003 1.504-2.235 2.592-3.587 3.153.91-.674 1.726-1.559 2.419-2.598 1.63-2.446 2.622-5.795 2.622-9.47 0-3.675-.992-7.024-2.622-9.47-.693-1.04-1.509-1.924-2.419-2.598 1.352.561 2.584 1.65 3.587 3.153 1.506 2.26 2.454 5.41 2.454 8.915 0 3.505-.948 6.655-2.454 8.915Zm-7 0c-1.003 1.504-2.235 2.592-3.587 3.153.91-.674 1.726-1.559 2.419-2.598 1.63-2.446 2.622-5.795 2.622-9.47 0-3.675-.992-7.024-2.622-9.47-.693-1.04-1.509-1.924-2.419-2.598 1.352.561 2.584 1.65 3.587 3.153 1.506 2.26 2.454 5.41 2.454 8.915 0 3.505-.948 6.655-2.454 8.915Zm-10.99-21.133c1.027.687 1.945 1.624 2.72 2.741C23.467 15.969 24.5 19.321 24.5 23c0 3.679-1.032 7.03-2.725 9.477a10.772 10.772 0 0 1-2.14 2.318c.066.036.132.07.198.103 1.205-.597 2.303-1.62 3.213-2.983 1.506-2.26 2.454-5.41 2.454-8.915 0-3.505-.948-6.655-2.454-8.915-1.102-1.652-2.48-2.802-3.99-3.303Zm2.002 24.565c.417.101.843.153 1.275.153 2.174 0 4.204-1.322 5.713-3.585 1.506-2.26 2.454-5.41 2.454-8.915 0-3.505-.948-6.655-2.454-8.915-1.51-2.263-3.539-3.585-5.713-3.585-.433 0-.859.052-1.275.153 1.072.7 2.026 1.687 2.82 2.877 1.63 2.446 2.622 5.795 2.622 9.47 0 3.675-.992 7.024-2.622 9.47-.794 1.19-1.748 2.177-2.82 2.877Z" fill="#44F1A6"/><path fill-rule="evenodd" clip-rule="evenodd" d="M8 0a8 8 0 0 0-8 8v32a8 8 0 0 0 8 8h32a8 8 0 0 0 8-8V8a8 8 0 0 0-8-8H8Zm32 1H8a7 7 0 0 0-7 7v32a7 7 0 0 0 7 7h32a7 7 0 0 0 7-7V8a7 7 0 0 0-7-7Z" fill="#44F1A6"/></svg>