<svg width="48" height="48" fill="none" xmlns="http://www.w3.org/2000/svg"><path fill-rule="evenodd" clip-rule="evenodd" d="M19 16v-1a4 4 0 0 1 4-4h3a4 4 0 0 1 4 4v1h5.5a.5.5 0 0 1 0 1h-22a.5.5 0 0 1 0-1H19Zm4-4h3a3 3 0 0 1 3 3v1h-9v-1a3 3 0 0 1 3-3Z" fill="#44F1A6"/><path d="M20.5 23a.5.5 0 0 0-.5.5v9a.5.5 0 0 0 1 0v-9a.5.5 0 0 0-.5-.5ZM28.5 23a.5.5 0 0 0-.5.5v9a.5.5 0 0 0 1 0v-9a.5.5 0 0 0-.5-.5ZM24.5 23a.5.5 0 0 0-.5.5v9a.5.5 0 0 0 1 0v-9a.5.5 0 0 0-.5-.5Z" fill="#44F1A6"/><path fill-rule="evenodd" clip-rule="evenodd" d="M34 33a4 4 0 0 1-4 4H19a4 4 0 0 1-4-4V19h19v14Zm-15 3a3 3 0 0 1-3-3V20h17v13a3 3 0 0 1-3 3H19Z" fill="#44F1A6"/><path fill-rule="evenodd" clip-rule="evenodd" d="M0 8a8 8 0 0 1 8-8h32a8 8 0 0 1 8 8v32a8 8 0 0 1-8 8H8a8 8 0 0 1-8-8V8Zm8-7h32a7 7 0 0 1 7 7v32a7 7 0 0 1-7 7H8a7 7 0 0 1-7-7V8a7 7 0 0 1 7-7Z" fill="#44F1A6"/></svg>