<svg xmlns="http://www.w3.org/2000/svg" viewBox="0 0 30 30"><path d="M3 4a1 1 0 0 0-1 1v2.277A1.99 1.99 0 0 0 1 9v14.045a2 2 0 0 0 1.926 1.992c4.815.196 8.283 1.092 10.236 1.746A2 2 0 0 0 15 28a2 2 0 0 0 1.84-1.217c1.953-.654 5.42-1.549 10.234-1.744A2.003 2.003 0 0 0 29 23.045V9a1.99 1.99 0 0 0-1-1.723V5a1 1 0 0 0-1-1c-4.574 0-7.662.508-9.633 1.033-1.597.426-2.073.753-2.367.92-.294-.167-.77-.494-2.367-.92C10.662 4.508 7.574 4 3 4zm1 2.055c3.782.077 6.499.48 8.117.912.98.261 1.536.477 1.883.637v15.968c-1.562-.53-4.855-1.389-10-1.511V6.055zm22 0V22.06c-5.145.122-8.438.981-10 1.511V7.604c.347-.16.903-.376 1.883-.637 1.618-.432 4.335-.835 8.117-.912z"/></svg>