<svg width="16" height="18" fill="none" xmlns="http://www.w3.org/2000/svg"><path fill-rule="evenodd" clip-rule="evenodd" d="M0 4.996v8.008a.92.92 0 0 0 .463.797l7.068 4.074a.94.94 0 0 0 .938 0l7.068-4.074a.92.92 0 0 0 .463-.797V4.996a.92.92 0 0 0-.463-.797L8.47.125a.94.94 0 0 0-.938 0L.463 4.2A.92.92 0 0 0 0 4.996ZM7.765 1.22 1.318 4.947a.46.46 0 0 0-.23.398v6.117L4.44 5.976c.281-.46.785-.742 1.33-.742h1.92l-5.275 8.453.573.331 5.4-8.784h2.641l-5.92 10.01 2.656 1.536a.47.47 0 0 0 .47 0l2.357-1.363-2.514-3.804 1.475-2.536 3.279 5.045.585-.338-3.32-5.476L11.34 6.08l3.573 5.198V5.345a.46.46 0 0 0-.231-.398L8.235 1.22a.47.47 0 0 0-.47 0Z" fill="#44F1A6"/></svg>