<svg width="16" height="18" fill="none" xmlns="http://www.w3.org/2000/svg"><path fill-rule="evenodd" clip-rule="evenodd" d="m2.998 3.415-1.28 1.28A.999.999 0 1 1 .304 3.281L3.225.358a1.016 1.016 0 0 1 .202-.18.999.999 0 0 1 1.388.246L7.72 3.33a1.001 1.001 0 0 1-1.415 1.416L4.998 3.44V10a1 1 0 1 1-2 0V3.415Zm10.016 11.17 1.28-1.28a1 1 0 1 1 1.413 1.414l-2.92 2.923a1.03 1.03 0 0 1-.773.358.999.999 0 0 1-.818-.424L8.292 14.67a1.001 1.001 0 0 1 1.416-1.416l1.306 1.307V8a1 1 0 1 1 2 0v6.585Z" fill="#6B6B6B"/></svg>