<svg width="48" height="48" fill="none" xmlns="http://www.w3.org/2000/svg"><path fill-rule="evenodd" clip-rule="evenodd" d="M24 8c8.837 0 16 7.163 16 16s-7.163 16-16 16S8 32.837 8 24 15.163 8 24 8Zm0 31c2.292 0 4.519-1.49 6.223-4.216.357-.572.687-1.191.985-1.854C29.042 33.614 26.593 34 24 34s-5.042-.386-7.208-1.07c.298.663.628 1.282.985 1.854C19.48 37.51 21.707 39 24 39Zm0-6c2.83 0 5.462-.477 7.705-1.295C32.523 29.462 33 26.831 33 24c0-2.83-.477-5.462-1.295-7.705C29.462 15.477 26.831 15 24 15c-2.83 0-5.462.477-7.705 1.295C15.477 18.538 15 21.169 15 24c0 2.83.477 5.462 1.295 7.705C18.538 32.523 21.169 33 24 33Zm4.457 5.327c1.655-1.32 3.048-3.353 4.024-5.846 2.493-.976 4.526-2.37 5.846-4.024a15.035 15.035 0 0 1-9.87 9.87ZM19.543 9.673a15.035 15.035 0 0 0-9.87 9.87c1.32-1.655 3.353-3.048 5.846-4.024.976-2.493 2.37-4.526 4.024-5.846Zm-1.766 3.543a15.516 15.516 0 0 0-.985 1.854C18.958 14.386 21.407 14 24 14s5.042.386 7.208 1.07a15.516 15.516 0 0 0-.985-1.854C28.52 10.49 26.293 9 24 9c-2.292 0-4.519 1.49-6.223 4.216Zm10.68-3.543c1.655 1.32 3.048 3.353 4.024 5.846 2.493.976 4.526 2.37 5.846 4.024a15.035 15.035 0 0 0-9.87-9.87Zm6.327 8.104a15.516 15.516 0 0 0-1.854-.985C33.614 18.958 34 21.407 34 24s-.386 5.042-1.07 7.208a15.516 15.516 0 0 0 1.854-.985C37.51 28.52 39 26.293 39 24c0-2.292-1.49-4.519-4.216-6.223Zm-21.568 0a15.516 15.516 0 0 1 1.854-.985C14.386 18.958 14 21.407 14 24s.386 5.042 1.07 7.208a15.516 15.516 0 0 1-1.854-.985C10.492 28.52 9.003 26.297 9 24.007V24c0-2.292 1.49-4.519 4.216-6.223Zm-3.543 10.68c1.32 1.655 3.353 3.048 5.846 4.024.976 2.493 2.37 4.526 4.024 5.846a15.035 15.035 0 0 1-9.87-9.87Z" fill="#44F1A6"/><path fill-rule="evenodd" clip-rule="evenodd" d="M0 8a8 8 0 0 1 8-8h32a8 8 0 0 1 8 8v32a8 8 0 0 1-8 8H8a8 8 0 0 1-8-8V8Zm8-7h32a7 7 0 0 1 7 7v32a7 7 0 0 1-7 7H8a7 7 0 0 1-7-7V8a7 7 0 0 1 7-7Z" fill="#44F1A6"/></svg>