<svg viewBox="0 0 323.6 302" xmlns="http://www.w3.org/2000/svg"><g stroke-linecap="round" stroke-linejoin="round"><path d="M307.03.5 181.15 94.59l23.28-55.51z" fill="#e2761b" stroke="#e2761b"/><g fill="#e4761b" stroke="#e4761b"><path d="m16.44.5 124.86 95-22.14-56.42zM261.74 218.61l-33.53 51.69 71.74 19.87 20.62-70.41zM3.15 219.76l20.5 70.41 71.73-19.87-33.54-51.69z"/><path d="m91.33 131.26-20 30.44 71.23 3.18-2.53-77zM232.14 131.26l-49.3-44.31-1.65 77.93 71.1-3.18zM95.38 270.3l42.76-21-36.94-29zM185.33 249.3l42.88 21-5.94-50z"/></g><path d="m228.21 270.3-42.88-21 3.41 28.14-.38 11.84zM95.38 270.3l39.85 19-.25-11.84 3.16-28.14z" fill="#d7c1b3" stroke="#d7c1b3"/><path d="m135.84 201.68-35.65-10.57 25.17-11.61zM187.6 201.68l10.51-22.18 25.3 11.59z" fill="#233447" stroke="#233447"/><g fill="#cd6116" stroke="#cd6116"><path d="m95.38 270.3 6.07-51.69-39.61 1.15zM222.14 218.61l6.07 51.69 33.53-50.54zM252.25 161.7l-71.1 3.18 6.58 36.8 10.5-22.18 25.3 11.59zM100.19 191.11l25.3-11.61 10.35 22.18 6.71-36.8-71.21-3.18z"/></g><path d="m71.34 161.7 29.86 58.57-1-29.16zM223.53 191.11l-1.26 29.16 30-58.57zM142.57 164.88l-6.73 36.8 8.35 43.41 1.9-57.17zM181.15 164.88l-3.41 22.92 1.52 57.29 8.47-43.41z" fill="#e4751f" stroke="#e4751f"/><path d="m187.73 201.68-8.47 43.41 6.07 4.21 36.94-29 1.26-29.16zM100.19 191.11l1 29.16 36.94 29 6.07-4.21-8.36-43.38z" fill="#f6851b" stroke="#f6851b"/><path d="m188.36 289.28.38-11.84-3.16-2.81h-47.69l-2.91 2.81.25 11.84-39.85-19 13.92 11.46 28.21 19.76h48.45l28.34-19.74 13.91-11.46z" fill="#c0ad9e" stroke="#c0ad9e"/><path d="m185.33 249.3-6.07-4.21h-35l-6.07 4.21-3.16 28.14 2.91-2.81h47.69l3.16 2.81z" fill="#161616" stroke="#161616"/><path d="m312.34 100.71 10.76-51.95L307.03.5l-121.7 90.91 46.81 39.85 66.16 19.49 14.68-17.19-6.33-4.59 10.12-9.29-7.84-6.11 10.12-7.77zM.5 48.76l10.75 52-6.83 5.04 10.12 7.77-7.7 6.11 10.12 9.29-6.32 4.59 14.55 17.19 66.16-19.49 46.79-39.85L16.44.5z" fill="#763d16" stroke="#763d16"/><path d="m298.3 150.75-66.16-19.49 20.11 30.44-30 58.57 39.47-.51h58.83zM91.33 131.26l-66.16 19.49-22 69h58.67l39.35.51-29.85-58.56zM181.15 164.88l4.18-73.47 19.23-52.33h-85.4l19 52.33 4.43 73.47 1.52 23.17.12 57h35l.25-57z" fill="#f6851b" stroke="#f6851b"/></g></svg>