<svg width="48" height="48" fill="none" xmlns="http://www.w3.org/2000/svg"><path d="M27.5 24a.5.5 0 0 0 0 1h3a.5.5 0 0 0 0-1h-3Z" fill="#44F1A6"/><path fill-rule="evenodd" clip-rule="evenodd" d="M36 11a4 4 0 0 1 4 4v18a4 4 0 0 1-4 4H12a4 4 0 0 1-4-4V15a4 4 0 0 1 4-4h24Zm-1.354 1H36a3 3 0 0 1 3 3v6h-3v-6a3.99 3.99 0 0 0-1.354-3ZM27.5 22H39v5H27.5a2.5 2.5 0 0 1 0-5ZM39 28h-3v5a3.99 3.99 0 0 1-1.354 3H36a3 3 0 0 0 3-3v-5Zm-11.5-7H35v-6a3 3 0 0 0-3-3H12a3 3 0 0 0-3 3v18a3 3 0 0 0 3 3h20a3 3 0 0 0 3-3v-5h-7.5a3.5 3.5 0 1 1 0-7Z" fill="#44F1A6"/><path fill-rule="evenodd" clip-rule="evenodd" d="M0 8a8 8 0 0 1 8-8h32a8 8 0 0 1 8 8v32a8 8 0 0 1-8 8H8a8 8 0 0 1-8-8V8Zm8-7h32a7 7 0 0 1 7 7v32a7 7 0 0 1-7 7H8a7 7 0 0 1-7-7V8a7 7 0 0 1 7-7Z" fill="#44F1A6"/></svg>