<svg width="48" height="48" fill="none" xmlns="http://www.w3.org/2000/svg"><path d="M11 26a2 2 0 1 0 0-4 2 2 0 0 0 0 4ZM22 25a1 1 0 1 0 0-2 1 1 0 0 0 0 2ZM27 25a1 1 0 1 0 0-2 1 1 0 0 0 0 2ZM32 25a1 1 0 1 0 0-2 1 1 0 0 0 0 2ZM37 25a1 1 0 1 0 0-2 1 1 0 0 0 0 2Z" fill="#44F1A6"/><path fill-rule="evenodd" clip-rule="evenodd" d="M5 20a2 2 0 0 1 2-2h34a2 2 0 0 1 2 2v8a2 2 0 0 1-2 2H7a2 2 0 0 1-2-2v-8Zm10-1a1 1 0 0 1 1 1v8a1 1 0 0 1-1 1H7a1 1 0 0 1-1-1v-8a1 1 0 0 1 1-1h8Zm2 9c0 .364-.097.706-.268 1H41a1 1 0 0 0 1-1v-8a1 1 0 0 0-1-1H16.732c.17.294.268.636.268 1v8Z" fill="#44F1A6"/><path fill-rule="evenodd" clip-rule="evenodd" d="M0 8a8 8 0 0 1 8-8h32a8 8 0 0 1 8 8v32a8 8 0 0 1-8 8H8a8 8 0 0 1-8-8V8Zm8-7h32a7 7 0 0 1 7 7v32a7 7 0 0 1-7 7H8a7 7 0 0 1-7-7V8a7 7 0 0 1 7-7Z" fill="#44F1A6"/></svg>